<mxfile host="app.diagrams.net" modified="2024-03-19T09:52:24.148Z" agent="Mozilla/5.0 (Windows NT 10.0; Win64; x64) AppleWebKit/537.36 (KHTML, like Gecko) Chrome/122.0.0.0 Safari/537.36" version="23.1.5" etag="4cKR4y201cUsIWuhujUs" type="github">
  <diagram name="Page-1" id="bEI0GuB1gzUyVKpvgEvu">
    <mxGraphModel>
      <root>
        <mxCell id="0" />
        <mxCell id="1" parent="0" />
      </root>
    </mxGraphModel>
  </diagram>
</mxfile>
